<svg width="16" height="18" viewBox="0 0 16 18" fill="none" xmlns="http://www.w3.org/2000/svg">
<path d="M4.16468 14.545C3.53549 14.1751 3.03172 13.5957 2.74416 12.9313C2.43125 12.7911 2.13749 12.5998 1.8761 12.3682L0.595041 14.9767C0.514655 15.1403 0.523287 15.3346 0.617566 15.4901C0.712114 15.6454 0.878552 15.74 1.05807 15.74H3.57312L5.08212 17.7885C5.18017 17.9222 5.33406 17.9995 5.49605 17.9995C5.71118 17.9995 5.88072 17.8687 5.95949 17.7081L7.07195 15.4425C6.77711 15.3303 6.49845 15.1778 6.24745 14.9909C5.53854 15.0691 4.79415 14.9149 4.16468 14.545Z" fill="white"/>
<path d="M15.9452 14.9767L14.6641 12.3682C14.4027 12.5998 14.109 12.7911 13.796 12.9313C13.5085 13.5957 13.0047 14.1751 12.3755 14.545C11.7462 14.9149 11.0017 15.0691 10.2929 14.9909C10.0418 15.1778 9.76324 15.3303 9.46826 15.4425L10.5809 17.7081C10.6595 17.8687 10.829 17.9995 11.0442 17.9995C11.2061 17.9995 11.3602 17.9222 11.4582 17.7885L12.9671 15.74H15.4821C15.6617 15.74 15.8281 15.6454 15.9226 15.4901C16.0169 15.3346 16.0256 15.1403 15.9452 14.9767Z" fill="white"/>
<path d="M8.27034 3.87891C6.4147 3.87891 4.90503 5.41603 4.90503 7.30554C4.90503 9.19491 6.4147 10.732 8.27034 10.732C10.126 10.732 11.6358 9.19491 11.6358 7.30554C11.6358 5.41603 10.126 3.87891 8.27034 3.87891ZM10.3434 6.49955L8.40184 9.04137C8.2118 9.29008 7.84844 9.31617 7.6267 9.0904L6.2399 7.67838C6.03759 7.47239 6.03759 7.13855 6.2399 6.93255C6.44208 6.7267 6.7701 6.7267 6.97228 6.93255L7.94434 7.92228L9.52577 5.85205C9.70138 5.62216 10.0268 5.58069 10.2526 5.75949C10.4784 5.93829 10.5191 6.26967 10.3434 6.49955Z" fill="white"/>
<path d="M9.99386 13.8555C10.5837 14.0453 11.2821 13.9706 11.8576 13.6324C12.4332 13.294 12.8462 12.7154 12.9796 12.1005C13.5835 11.9644 14.1517 11.544 14.4839 10.9582C14.8162 10.372 14.8896 9.66095 14.7032 9.06055C15.1595 8.63552 15.445 7.98238 15.445 7.30548C15.445 6.62859 15.1594 5.97545 14.7032 5.55042C14.8896 4.95002 14.8162 4.23879 14.4839 3.65281C14.1517 3.06683 13.5835 2.64646 12.9795 2.51037C12.8461 1.89555 12.4332 1.31698 11.8576 0.978743C11.2822 0.640365 10.5837 0.56552 9.99386 0.755446C9.57628 0.290863 8.93454 0 8.27 0C7.6056 0 6.96399 0.290863 6.54641 0.755446C5.9566 0.565658 5.25807 0.640365 4.68242 0.978743C4.1069 1.31712 3.69418 1.89569 3.56078 2.51051C2.95681 2.64646 2.38857 3.06697 2.05651 3.65281C1.72417 4.23879 1.65066 4.95002 1.83693 5.55042C1.38064 5.97545 1.09497 6.62873 1.09497 7.30548C1.09497 7.98224 1.38064 8.63552 1.83693 9.06055C1.65066 9.66095 1.72417 10.372 2.05637 10.9582C2.38857 11.544 2.95667 11.9645 3.56065 12.1005C3.69404 12.7153 4.1069 13.2938 4.68242 13.6324C5.25794 13.9706 5.9566 14.0453 6.54628 13.8555C6.96399 14.3201 7.6056 14.611 8.27 14.611C8.93454 14.611 9.57628 14.3201 9.99386 13.8555ZM3.86884 7.30548C3.86884 4.83453 5.84317 2.82431 8.27 2.82431C10.6968 2.82431 12.6713 4.83453 12.6713 7.30548C12.6713 9.77644 10.6968 11.7867 8.27 11.7867C5.84317 11.7867 3.86884 9.77644 3.86884 7.30548Z" fill="white"/>
</svg>
