<svg width="26" height="23" viewBox="0 0 26 23" fill="none" xmlns="http://www.w3.org/2000/svg">
<path d="M11.4451 13.4956C10.5547 13.1437 8.92529 11.0542 9.11682 8.3611C9.3358 5.28547 11.5953 3.41907 12.8477 0.542969C12.9034 0.736747 12.947 0.924791 13.0021 1.10774C12.7544 1.91281 10.3626 6.36658 10.2998 9.18462C10.2585 11.0376 10.9275 12.6554 11.4451 13.4956Z" fill="url(#paint0_linear_5766_22164)"/>
<path d="M10.5926 16.603C10.4191 17.2181 10.3197 17.7376 10.2629 18.0863L9.75429 16.8529L5.98746 7.48067C5.81633 7.05547 6.11013 6.58058 6.54577 6.58058H7.13696V5.67035H1.56543V6.58058H2.50967C3.04403 6.58058 3.52692 6.91971 3.73695 7.44308L8.63651 19.6288L9.41441 21.5647H10.0917L10.8696 19.6301L12.9478 14.4612L15.0224 19.6187L15.8045 21.5647H16.4735L17.2567 19.6187L22.1527 7.44308C22.3628 6.91911 22.8457 6.58058 23.38 6.58058H24.0938V5.67035H18.7449V6.58058H19.3445C19.7801 6.58058 20.074 7.05547 19.9028 7.48067L16.0774 17.3347L14.713 13.5044C15.9296 12.6675 16.7649 10.926 16.7649 8.91236C16.7649 5.55371 13.475 3.52093 12.9945 1.08594C12.152 3.19138 9.38509 5.55434 9.38509 8.91236C9.38509 11.1204 10.452 12.9887 11.4447 13.5114C11.4244 13.25 11.471 12.9926 11.5111 12.663C11.5859 12.0549 11.6302 11.6762 11.6924 11.2638C11.5249 11.1835 11.2508 11.0216 11.0103 10.7137C10.6046 10.1942 10.5711 9.61162 10.568 9.41782C10.6859 9.62052 10.905 10.0253 11.176 10.2835C11.3956 10.4925 11.5745 10.6111 11.7481 10.5964C11.7882 10.4626 11.787 10.2815 11.8318 9.96152C11.8755 9.6486 11.9138 9.44905 11.9324 9.24126C11.79 9.1788 11.4758 9.01562 11.2317 8.65228C10.902 8.16147 10.9253 7.64131 10.9367 7.49344C11.054 7.7994 11.1838 8.06517 11.4309 8.30486C11.605 8.47379 11.8438 8.59617 12.006 8.59296C12.0167 8.49097 12.0305 8.21497 12.1406 7.87972C12.2244 7.62472 12.304 7.42583 12.3561 7.31683C12.2363 7.22634 11.9449 7.05674 11.7953 6.79479C11.5464 6.35942 11.3747 5.88389 11.3998 5.78063C11.5865 6.11465 11.6894 6.288 11.8312 6.41232C11.9294 6.49899 12.1394 6.60673 12.3219 6.56146C12.3446 6.5551 12.3812 6.53664 12.3949 6.51879C12.4314 6.47097 12.5433 5.88836 12.6457 5.51864C12.7683 5.11961 13.1878 4.40633 13.1878 4.40633C13.1878 4.40633 13.0017 5.38032 12.9424 5.84246C12.8611 6.47926 12.6833 7.54634 12.7617 7.30853C12.8197 7.13137 13.3296 6.65775 14.0829 6.49772C13.9854 6.51879 13.5965 6.83625 13.4654 6.9803C13.1782 7.29582 13.0956 7.44308 12.8293 7.97529C12.6474 8.33863 12.4505 9.02137 12.4661 9.98961C12.6097 9.78309 12.9586 9.33368 13.4702 9.05702C13.9704 8.7861 14.3755 8.64271 14.8088 8.53431C14.4282 8.79566 13.627 9.34258 13.1591 9.95008C12.4261 10.9017 12.2812 11.4493 12.3016 12.3047C12.4122 12.1352 12.6774 11.7769 13.1495 11.5385C13.609 11.3065 14.0255 11.3085 14.2188 11.3225C13.268 11.8866 12.657 12.5291 12.3016 12.9651C11.2574 14.2438 10.8667 15.629 10.5914 16.6036L10.5926 16.603Z" fill="url(#paint1_linear_5766_22164)"/>
<path d="M10.5926 16.603C10.4191 17.2181 10.3197 17.7376 10.2629 18.0863L9.75429 16.8529L5.98746 7.48067C5.81633 7.05547 6.11013 6.58058 6.54577 6.58058H7.13696V5.67035H1.56543V6.58058H2.50967C3.04403 6.58058 3.52692 6.91971 3.73695 7.44308L8.63651 19.6288L9.41441 21.5647H10.0917L10.8696 19.6301L12.9478 14.4612L15.0224 19.6187L15.8045 21.5647H16.4735L17.2567 19.6187L22.1527 7.44308C22.3628 6.91911 22.8457 6.58058 23.38 6.58058H24.0938V5.67035H18.7449V6.58058H19.3445C19.7801 6.58058 20.074 7.05547 19.9028 7.48067L16.0774 17.3347L14.713 13.5044C15.9296 12.6675 16.7649 10.926 16.7649 8.91236C16.7649 5.55371 13.475 3.52093 12.9945 1.08594C12.152 3.19138 9.38509 5.55434 9.38509 8.91236C9.38509 11.1204 10.452 12.9887 11.4447 13.5114C11.4244 13.25 11.471 12.9926 11.5111 12.663C11.5859 12.0549 11.6302 11.6762 11.6924 11.2638C11.5249 11.1835 11.2508 11.0216 11.0103 10.7137C10.6046 10.1942 10.5711 9.61162 10.568 9.41782C10.6859 9.62052 10.905 10.0253 11.176 10.2835C11.3956 10.4925 11.5745 10.6111 11.7481 10.5964C11.7882 10.4626 11.787 10.2815 11.8318 9.96152C11.8755 9.6486 11.9138 9.44905 11.9324 9.24126C11.79 9.1788 11.4758 9.01562 11.2317 8.65228C10.902 8.16147 10.9253 7.64131 10.9367 7.49344C11.054 7.7994 11.1838 8.06517 11.4309 8.30486C11.605 8.47379 11.8438 8.59617 12.006 8.59296C12.0167 8.49097 12.0305 8.21497 12.1406 7.87972C12.2244 7.62472 12.304 7.42583 12.3561 7.31683C12.2363 7.22634 11.9449 7.05674 11.7953 6.79479C11.5464 6.35942 11.3747 5.88389 11.3998 5.78063C11.5865 6.11465 11.6894 6.288 11.8312 6.41232C11.9294 6.49899 12.1394 6.60673 12.3219 6.56146C12.3446 6.5551 12.3812 6.53664 12.3949 6.51879C12.4314 6.47097 12.5433 5.88836 12.6457 5.51864C12.7683 5.11961 13.1878 4.40633 13.1878 4.40633C13.1878 4.40633 13.0017 5.38032 12.9424 5.84246C12.8611 6.47926 12.6833 7.54634 12.7617 7.30853C12.8197 7.13137 13.3296 6.65775 14.0829 6.49772C13.9854 6.51879 13.5965 6.83625 13.4654 6.9803C13.1782 7.29582 13.0956 7.44308 12.8293 7.97529C12.6474 8.33863 12.4505 9.02137 12.4661 9.98961C12.6097 9.78309 12.9586 9.33368 13.4702 9.05702C13.9704 8.7861 14.3755 8.64271 14.8088 8.53431C14.4282 8.79566 13.627 9.34258 13.1591 9.95008C12.4261 10.9017 12.2812 11.4493 12.3016 12.3047C12.4122 12.1352 12.6774 11.7769 13.1495 11.5385C13.609 11.3065 14.0255 11.3085 14.2188 11.3225C13.268 11.8866 12.657 12.5291 12.3016 12.9651C11.2574 14.2438 10.8667 15.629 10.5914 16.6036L10.5926 16.603Z" fill="#06937F"/>
<path d="M10.279 18.0726C10.3358 17.7239 10.4352 17.2044 10.6087 16.5893L10.6075 16.5899L10.608 16.588C10.8832 15.6135 11.2741 14.2293 12.3177 12.9515C12.6731 12.5154 13.284 11.8729 14.2349 11.3088C14.0416 11.2948 13.6251 11.2929 13.1656 11.5249C12.6934 11.7633 12.4283 12.1215 12.3177 12.2911C12.2973 11.4356 12.4421 10.8881 13.1751 9.93641C13.6378 9.33574 14.4264 8.79421 14.8119 8.52953L14.8249 8.52063C14.3916 8.62904 13.9865 8.77242 13.4863 9.04334C12.9746 9.32001 12.6258 9.76941 12.4822 9.97593C12.4666 9.00769 12.6635 8.32495 12.8454 7.96161C13.1117 7.42941 13.1942 7.28214 13.4815 6.96662C13.6125 6.82257 14.0015 6.50511 14.099 6.48405C13.3457 6.64408 12.8358 7.11769 12.7778 7.29486C12.6994 7.53266 12.8771 6.46558 12.9585 5.82879C13.0178 5.36665 13.2039 4.39265 13.2039 4.39265C13.2039 4.39265 12.7844 5.10594 12.6617 5.50497C12.5594 5.87468 12.4475 6.45729 12.411 6.50511C12.3972 6.52296 12.3607 6.54142 12.338 6.54784C12.1555 6.59305 11.9454 6.48532 11.8473 6.39864C11.7055 6.27432 11.6026 6.10097 11.4159 5.76695C11.3907 5.87022 11.5625 6.34574 11.8114 6.78111C11.961 7.04307 12.2524 7.21266 12.3721 7.30315C12.32 7.41216 12.2404 7.61104 12.1567 7.86604C12.0466 8.2013 12.0328 8.4773 12.022 8.57928C11.8599 8.58249 11.6211 8.46011 11.447 8.29118C11.1999 8.05149 11.07 7.78572 10.9527 7.47976C10.9413 7.62763 10.9181 8.14779 11.2477 8.6386C11.4919 9.00194 11.806 9.16512 11.9485 9.22758C11.9299 9.43537 11.8916 9.63492 11.8479 9.94791C11.8031 10.2678 11.8042 10.4489 11.7641 10.5828C11.5906 10.5974 11.4117 10.4788 11.1921 10.2698C10.921 10.0116 10.702 9.60684 10.5841 9.40414C10.5871 9.59794 10.6206 10.1806 11.0263 10.7001C11.2669 11.0079 11.541 11.1698 11.7085 11.2501C11.6462 11.6626 11.602 12.0412 11.5272 12.6493C11.4871 12.9789 11.4404 13.2364 11.4608 13.4977C10.4681 12.9751 9.40112 11.1067 9.40112 8.89868C9.40112 5.54066 12.1681 3.1777 13.0106 1.07227C13.4911 3.50726 16.781 5.54003 16.781 8.89868C16.781 10.9123 15.9456 12.6538 14.7291 13.4908L12.9639 14.4475L10.8857 19.6164L10.279 18.0726Z" fill="url(#paint2_linear_5766_22164)"/>
<path d="M14.22 11.3076C14.22 11.3076 13.0543 12.1694 11.9539 13.8401C11.0851 15.1596 10.6357 16.7506 10.3425 17.6551C10.3425 17.6551 10.5166 16.6333 10.7686 15.936C10.9756 15.3611 11.3053 14.3303 11.7583 13.7139C11.9899 13.3984 12.301 12.8897 12.7019 12.5022C13.6001 11.634 14.22 11.3076 14.22 11.3076Z" fill="#00FFE0"/>
<path d="M14.22 11.3076C14.22 11.3076 13.0543 12.1694 11.9539 13.8401C11.0851 15.1596 10.6357 16.7506 10.3425 17.6551C10.3425 17.6551 10.5166 16.6333 10.7686 15.936C10.9756 15.3611 11.3053 14.3303 11.7583 13.7139C11.9899 13.3984 12.301 12.8897 12.7019 12.5022C13.6001 11.634 14.22 11.3076 14.22 11.3076Z" fill="#00FFE0"/>
<path d="M14.22 11.3076C14.22 11.3076 13.0543 12.1694 11.9539 13.8401C11.0851 15.1596 10.6357 16.7506 10.3425 17.6551C10.3425 17.6551 10.5166 16.6333 10.7686 15.936C10.9756 15.3611 11.3053 14.3303 11.7583 13.7139C11.9899 13.3984 12.301 12.8897 12.7019 12.5022C13.6001 11.634 14.22 11.3076 14.22 11.3076Z" fill="url(#paint3_linear_5766_22164)"/>
<path d="M14.8094 8.51895C14.7842 8.4833 13.8513 9.14492 13.1596 9.93473C12.9681 10.1533 12.7557 10.4268 12.581 10.808C12.4643 11.063 12.4086 11.2688 12.3925 11.3326C12.2908 11.7272 12.2884 12.0669 12.3021 12.2894C12.3709 11.8834 12.5068 11.3288 12.803 10.7398C13.5623 9.23099 14.8375 8.55914 14.8094 8.51895Z" fill="#00FFE0"/>
<path d="M14.8094 8.51895C14.7842 8.4833 13.8513 9.14492 13.1596 9.93473C12.9681 10.1533 12.7557 10.4268 12.581 10.808C12.4643 11.063 12.4086 11.2688 12.3925 11.3326C12.2908 11.7272 12.2884 12.0669 12.3021 12.2894C12.3709 11.8834 12.5068 11.3288 12.803 10.7398C13.5623 9.23099 14.8375 8.55914 14.8094 8.51895Z" fill="#00FFE0"/>
<path d="M14.8094 8.51895C14.7842 8.4833 13.8513 9.14492 13.1596 9.93473C12.9681 10.1533 12.7557 10.4268 12.581 10.808C12.4643 11.063 12.4086 11.2688 12.3925 11.3326C12.2908 11.7272 12.2884 12.0669 12.3021 12.2894C12.3709 11.8834 12.5068 11.3288 12.803 10.7398C13.5623 9.23099 14.8375 8.55914 14.8094 8.51895Z" fill="url(#paint4_linear_5766_22164)"/>
<path d="M13.119 4.78418C13.0394 5.17748 12.985 5.50384 12.949 5.73459C12.8276 6.51484 12.7444 7.33328 12.7444 7.33328C12.7737 7.28358 12.8024 7.23256 12.83 7.17966C12.83 6.87243 12.9436 5.82511 13.119 4.78418Z" fill="#00FFE0"/>
<path d="M13.119 4.78418C13.0394 5.17748 12.985 5.50384 12.949 5.73459C12.8276 6.51484 12.7444 7.33328 12.7444 7.33328C12.7737 7.28358 12.8024 7.23256 12.83 7.17966C12.83 6.87243 12.9436 5.82511 13.119 4.78418Z" fill="#00FFE0"/>
<path d="M13.119 4.78418C13.0394 5.17748 12.985 5.50384 12.949 5.73459C12.8276 6.51484 12.7444 7.33328 12.7444 7.33328C12.7737 7.28358 12.8024 7.23256 12.83 7.17966C12.83 6.87243 12.9436 5.82511 13.119 4.78418Z" fill="url(#paint5_linear_5766_22164)"/>
<path d="M12.7789 8.02659C13.214 7.00097 13.9584 6.55029 13.9584 6.55029C13.947 6.53752 13.6909 6.77847 13.4479 7.04558C13.3534 7.14944 13.281 7.23872 13.2164 7.33048C13.2164 7.33048 12.9746 7.66258 12.8094 8.0744C12.5019 8.84188 12.4463 10.0887 12.4463 10.0887C12.4463 10.0887 12.3589 9.0165 12.7789 8.02659Z" fill="#00FFE0"/>
<path d="M12.7789 8.02659C13.214 7.00097 13.9584 6.55029 13.9584 6.55029C13.947 6.53752 13.6909 6.77847 13.4479 7.04558C13.3534 7.14944 13.281 7.23872 13.2164 7.33048C13.2164 7.33048 12.9746 7.66258 12.8094 8.0744C12.5019 8.84188 12.4463 10.0887 12.4463 10.0887C12.4463 10.0887 12.3589 9.0165 12.7789 8.02659Z" fill="#00FFE0"/>
<path d="M12.7789 8.02659C13.214 7.00097 13.9584 6.55029 13.9584 6.55029C13.947 6.53752 13.6909 6.77847 13.4479 7.04558C13.3534 7.14944 13.281 7.23872 13.2164 7.33048C13.2164 7.33048 12.9746 7.66258 12.8094 8.0744C12.5019 8.84188 12.4463 10.0887 12.4463 10.0887C12.4463 10.0887 12.3589 9.0165 12.7789 8.02659Z" fill="url(#paint6_linear_5766_22164)"/>
<defs>
<linearGradient id="paint0_linear_5766_22164" x1="11.0517" y1="0.542969" x2="11.0517" y2="13.4956" gradientUnits="userSpaceOnUse">
<stop stop-color="#00FFE0"/>
<stop offset="1" stop-color="#00FFE0" stop-opacity="0"/>
</linearGradient>
<linearGradient id="paint1_linear_5766_22164" x1="1.56543" y1="11.325" x2="24.095" y2="11.325" gradientUnits="userSpaceOnUse">
<stop stop-color="white"/>
<stop offset="1" stop-color="#A2A2A2"/>
</linearGradient>
<linearGradient id="paint2_linear_5766_22164" x1="13.0911" y1="1.07227" x2="15.7484" y2="16.0539" gradientUnits="userSpaceOnUse">
<stop stop-color="#00FFD1"/>
<stop offset="0.359531" stop-color="#27E0B3"/>
<stop offset="0.910836" stop-color="#167436" stop-opacity="0"/>
<stop offset="0.992527" stop-color="#216649" stop-opacity="0"/>
</linearGradient>
<linearGradient id="paint3_linear_5766_22164" x1="12.2813" y1="11.3076" x2="12.2813" y2="17.6551" gradientUnits="userSpaceOnUse">
<stop stop-color="#00FFE0"/>
<stop offset="1" stop-color="#00FFE0"/>
</linearGradient>
<linearGradient id="paint4_linear_5766_22164" x1="13.553" y1="8.51762" x2="13.553" y2="12.2894" gradientUnits="userSpaceOnUse">
<stop stop-color="#00FFE0"/>
<stop offset="1" stop-color="#00FFE0"/>
</linearGradient>
<linearGradient id="paint5_linear_5766_22164" x1="12.9317" y1="4.78418" x2="12.9317" y2="7.33328" gradientUnits="userSpaceOnUse">
<stop stop-color="#00FFE0"/>
<stop offset="1" stop-color="#00FFE0"/>
</linearGradient>
<linearGradient id="paint6_linear_5766_22164" x1="13.1985" y1="6.54981" x2="13.1985" y2="10.0887" gradientUnits="userSpaceOnUse">
<stop stop-color="#00FFE0"/>
<stop offset="1" stop-color="#00FFE0"/>
</linearGradient>
</defs>
</svg>
